<svg width="15" height="16" viewBox="0 0 15 16" fill="none" xmlns="http://www.w3.org/2000/svg">
<path d="M8.27875 0C7.57544 0 7.81195 1.50311 7.81195 1.50311C7.81195 1.50311 6.30884 5.64834 4.87108 6.75311C4.56299 7.07676 4.37004 7.43465 4.24867 7.72718C4.22066 7.79876 4.19577 7.86722 4.17398 7.92946C4.07751 8.12552 3.87212 8.42739 3.43332 8.69191L4.87108 14.944C4.87108 14.944 7.09618 15.2334 9.32751 15.1867C10.2207 15.2583 11.1667 15.2645 11.9198 15.1027C14.4779 14.5581 13.8368 12.7749 13.8368 12.7749C15.2155 11.7386 14.4312 10.444 14.4312 10.444C15.6574 9.16494 14.453 8.09129 14.453 8.09129C14.453 8.09129 15.1159 7.05809 14.2601 6.27697C13.1927 5.29979 10.2954 5.95021 10.2954 5.95021C10.0931 5.98444 9.87834 6.02801 9.64805 6.08402C9.64805 6.08402 8.64597 6.55083 9.64805 3.51037C10.6532 0.469917 8.98207 0 8.27875 0Z" fill="#A7A7A7"/>
<path d="M3.83787 14.4927L2.74866 9.31743C2.68642 9.02179 2.38766 8.77905 2.0858 8.77905H0.00695725L0.00384521 15.028H3.39907C3.70405 15.0311 3.90011 14.7884 3.83787 14.4927Z" fill="#A7A7A7"/>
</svg>
